<svg width="32" height="32" viewBox="0 0 32 32" fill="none" xmlns="http://www.w3.org/2000/svg">
<path opacity="0.1" fill-rule="evenodd" clip-rule="evenodd" d="M0 16C0 7.16344 7.16344 0 16 0C24.8366 0 32 7.16344 32 16C32 24.8366 24.8366 32 16 32C7.16344 32 0 24.8366 0 16Z" fill="white"/>
<path d="M23.0045 9.54297C21.1339 7.90234 18.6429 7 15.9955 7C10.5312 7 6.08482 10.8906 6.08482 15.6719C6.08482 17.1992 6.54018 18.6914 7.40625 20.0078L6 24.5L11.2545 23.293C12.7009 23.9844 14.3304 24.3477 15.9911 24.3477H15.9955C21.4554 24.3477 26 20.457 26 15.6758C26 13.3594 24.875 11.1836 23.0045 9.54297ZM15.9955 22.8867C14.5134 22.8867 13.0625 22.5391 11.7991 21.8828L11.5 21.7266L8.38393 22.4414L9.21429 19.7812L9.01786 19.5078C8.19196 18.3594 7.75893 17.0352 7.75893 15.6719C7.75893 11.6992 11.4554 8.46484 16 8.46484C18.2009 8.46484 20.2679 9.21484 21.8214 10.5781C23.375 11.9414 24.3304 13.75 24.3259 15.6758C24.3259 19.6523 20.5357 22.8867 15.9955 22.8867ZM20.5134 17.4883C20.2679 17.3789 19.0491 16.8555 18.8214 16.7852C18.5938 16.7109 18.4286 16.6758 18.2634 16.8945C18.0982 17.1133 17.625 17.5977 17.4777 17.7461C17.3348 17.8906 17.1875 17.9102 16.942 17.8008C15.4866 17.1641 14.5312 16.6641 13.5714 15.2227C13.317 14.8398 13.8259 14.8672 14.2991 14.0391C14.3795 13.8945 14.3393 13.7695 14.2768 13.6602C14.2143 13.5508 13.7188 12.4844 13.5134 12.0508C13.3125 11.6289 13.1071 11.6875 12.9554 11.6797C12.8125 11.6719 12.6473 11.6719 12.4821 11.6719C12.317 11.6719 12.0491 11.7266 11.8214 11.9414C11.5938 12.1602 10.9554 12.6836 10.9554 13.75C10.9554 14.8164 11.8438 15.8477 11.9643 15.9922C12.0893 16.1367 13.7098 18.3242 16.1964 19.2656C17.7679 19.8594 18.3839 19.9102 19.1696 19.8086C19.6473 19.7461 20.6339 19.2852 20.8393 18.7773C21.0446 18.2695 21.0446 17.8359 20.9821 17.7461C20.9241 17.6484 20.7589 17.5938 20.5134 17.4883Z" fill="white"/>
</svg>
